<svg xmlns="http://www.w3.org/2000/svg" viewBox="0 0 250 100" fill="none" aria-label="NeoTroy Games">
  <rect width="250" height="100" rx="8" fill="#44616C" />
  <g transform="translate(6, 4)">
    <polygon points="36,4 43,12 40,30 30,22 28,12" fill="#8C5C2C" />
    <polygon points="40,30 48,22 52,32 44,38 35,34" fill="#C28B47" />
    <polygon points="41,18 45,21 42,23" fill="#1E1E1E" />
    <polygon points="34,26 44,38 36,54 26,42" fill="#A8733B" />
    <polygon points="44,38 52,48 44,60 36,54" fill="#8C5C2C" />
    <polygon points="26,42 36,54 26,64 16,52" fill="#754E25" />
    <polygon points="36,54 50,54 56,66 42,70 26,64" fill="#C28B47" />
    <polygon points="50,54 62,48 68,60 56,66" fill="#8C5C2C" />
    <polygon points="16,52 26,64 20,72 12,62" fill="#A8733B" />
    <rect x="8" y="72" width="64" height="6" rx="1" fill="#6A431D" />
    <circle cx="20" cy="80" r="5" fill="#2E1C0C" />
    <circle cx="20" cy="80" r="2" fill="#C28B47" />
    <circle cx="60" cy="80" r="5" fill="#2E1C0C" />
    <circle cx="60" cy="80" r="2" fill="#C28B47" />
    <circle cx="6" cy="78" r="2.5" fill="#2E8540" />
    <path d="M4 86 C4 82 8 82 8 86 Z" fill="#2E8540" />
    <line x1="2" y1="71" x2="2" y2="88" stroke="#333" stroke-width="1" />
    <circle cx="13" cy="79" r="2.5" fill="#E8B024" />
    <path d="M11 86 C11 83 15 83 15 86 Z" fill="#E8B024" />
    <line x1="10" y1="72" x2="10" y2="88" stroke="#333" stroke-width="1" />
    <circle cx="67" cy="78" r="2.5" fill="#D93829" />
    <path d="M65 86 C65 82 69 82 69 86 Z" fill="#D93829" />
    <line x1="64" y1="71" x2="64" y2="88" stroke="#333" stroke-width="1" />
    <circle cx="74" cy="79" r="2.5" fill="#2563EB" />
    <path d="M72 86 C72 83 76 83 76 86 Z" fill="#2563EB" />
    <line x1="77" y1="72" x2="77" y2="88" stroke="#333" stroke-width="1" />
  </g>
  <g transform="translate(90, 26)">
    <text x="0" y="28" font-family="'Impact', 'Arial Black', sans-serif" font-size="30" font-weight="900" letter-spacing="2" fill="#E59535" stroke="#1F1A14" stroke-width="1.5" paint-order="stroke fill">NEOTROY</text>
    <text x="16" y="50" font-family="system-ui, -apple-system, sans-serif" font-size="15" font-weight="900" letter-spacing="7" fill="#FFFFFF">GAMES</text>
  </g>
</svg>
